HIERARCHY
ROOT hip
{
  OFFSET 0 0 0
  CHANNELS 6 Xposition Yposition Zposition Zrotation Yrotation Xrotation
  JOINT abdomen
  {
    OFFSET 0 20.6881 -0.73152
    CHANNELS 3 Zrotation Xrotation Yrotation
    JOINT chest
    {
      OFFSET 0 11.7043 -0.48768
      CHANNELS 3 Zrotation Xrotation Yrotation
      JOINT neck
      {
        OFFSET 0 22.1894 -2.19456
        CHANNELS 3 Zrotation Xrotation Yrotation
        JOINT head
        {
          OFFSET -0.24384 7.07133 1.2192
          CHANNELS 3 Zrotation Xrotation Yrotation
          JOINT leftEye
          {
            OFFSET 4.14528 8.04674 8.04672
            CHANNELS 3 Zrotation Xrotation Yrotation
            End Site
            {
              OFFSET 1 0 0
            }
          }
          JOINT rightEye
          {
            OFFSET -3.6576 8.04674 8.04672
            CHANNELS 3 Zrotation Xrotation Yrotation
            End Site
            {
              OFFSET 1 0 0
            }
          }
        }
      }
      JOINT rCollar
      {
        OFFSET -2.68224 19.2634 -4.8768
        CHANNELS 3 Zrotation Xrotation Yrotation
        JOINT rShldr
        {
          OFFSET -8.77824 -1.95073 1.46304
          CHANNELS 3 Zrotation Xrotation Yrotation
          JOINT rForeArm
          {
            OFFSET -28.1742 -1.7115 0.48768
            CHANNELS 3 Zrotation Xrotation Yrotation
            JOINT rHand
            {
              OFFSET -22.5879 0.773209 7.07136
              CHANNELS 3 Zrotation Xrotation Yrotation
              JOINT rThumb1
              {
                OFFSET -1.2192 -0.487915 3.41376
                CHANNELS 3 Zrotation Xrotation Yrotation
                JOINT rThumb2
                {
                  OFFSET -3.37035 -0.52449 3.41376
                  CHANNELS 3 Zrotation Xrotation Yrotation
                  End Site
                  {
                    OFFSET -1.78271 -1.18214 1.43049
                  }
                }
              }
              JOINT rIndex1
              {
                OFFSET -7.75947 0.938293 5.60832
                CHANNELS 3 Zrotation Xrotation Yrotation
                JOINT rIndex2
                {
                  OFFSET -2.54057 -0.884171 1.56538
                  CHANNELS 3 Zrotation Xrotation Yrotation
                  End Site
                  {
                    OFFSET -1.62519 -0.234802 1.16502
                  }
                }
              }
              JOINT rMid1
              {
                OFFSET -8.24714 1.18213 3.41376
                CHANNELS 3 Zrotation Xrotation Yrotation
                JOINT rMid2
                {
                  OFFSET -3.10165 -0.590103 1.0647
                  CHANNELS 3 Zrotation Xrotation Yrotation
                  End Site
                  {
                    OFFSET -2.48547 -0.328903 0.83742
                  }
                }
              }
              JOINT rRing1
              {
                OFFSET -8.82822 0.546677 1.51678
                CHANNELS 3 Zrotation Xrotation Yrotation
                JOINT rRing2
                {
                  OFFSET -2.60934 -0.819778 -0.0198488
                  CHANNELS 3 Zrotation Xrotation Yrotation
                  End Site
                  {
                    OFFSET -2.33842 -0.294052 0.168128
                  }
                }
              }
              JOINT rPinky1
              {
                OFFSET -8.27202 -0.0477905 -0.4584
                CHANNELS 3 Zrotation Xrotation Yrotation
                JOINT rPinky2
                {
                  OFFSET -1.82734 -0.647385 -0.700984
                  CHANNELS 3 Zrotation Xrotation Yrotation
                  End Site
                  {
                    OFFSET -1.69225 -0.51767 -0.607171
                  }
                }
              }
            }
          }
        }
      }
      JOINT lCollar
      {
        OFFSET 2.68224 19.2634 -4.8768
        CHANNELS 3 Zrotation Xrotation Yrotation
        JOINT lShldr
        {
          OFFSET 8.77824 -1.95073 1.46304
          CHANNELS 3 Zrotation Xrotation Yrotation
          JOINT lForeArm
          {
            OFFSET 28.1742 -1.7115 0.48768
            CHANNELS 3 Zrotation Xrotation Yrotation
            JOINT lHand
            {
              OFFSET 22.5879 0.773209 7.07136
              CHANNELS 3 Zrotation Xrotation Yrotation
              JOINT lThumb1
              {
                OFFSET 1.2192 -0.487915 3.41376
                CHANNELS 3 Zrotation Xrotation Yrotation
                JOINT lThumb2
                {
                  OFFSET 3.37035 -0.52449 3.41376
                  CHANNELS 3 Zrotation Xrotation Yrotation
                  End Site
                  {
                    OFFSET 1.78271 -1.18214 1.43049
                  }
                }
              }
              JOINT lIndex1
              {
                OFFSET 7.75947 0.938293 5.60832
                CHANNELS 3 Zrotation Xrotation Yrotation
                JOINT lIndex2
                {
                  OFFSET 2.54057 -0.884171 1.56538
                  CHANNELS 3 Zrotation Xrotation Yrotation
                  End Site
                  {
                    OFFSET 1.62519 -0.234802 1.16502
                  }
                }
              }
              JOINT lMid1
              {
                OFFSET 8.24714 1.18213 3.41376
                CHANNELS 3 Zrotation Xrotation Yrotation
                JOINT lMid2
                {
                  OFFSET 3.10165 -0.590103 1.0647
                  CHANNELS 3 Zrotation Xrotation Yrotation
                  End Site
                  {
                    OFFSET 2.48547 -0.328903 0.83742
                  }
                }
              }
              JOINT lRing1
              {
                OFFSET 8.82822 0.546677 1.51678
                CHANNELS 3 Zrotation Xrotation Yrotation
                JOINT lRing2
                {
                  OFFSET 2.60934 -0.819778 -0.0198488
                  CHANNELS 3 Zrotation Xrotation Yrotation
                  End Site
                  {
                    OFFSET 2.33842 -0.294052 0.168128
                  }
                }
              }
              JOINT lPinky1
              {
                OFFSET 8.27202 -0.0477905 -0.4584
                CHANNELS 3 Zrotation Xrotation Yrotation
                JOINT lPinky2
                {
                  OFFSET 1.82734 -0.647385 -0.700984
                  CHANNELS 3 Zrotation Xrotation Yrotation
                  End Site
                  {
                    OFFSET 1.69225 -0.51767 -0.607171
                  }
                }
              }
            }
          }
        }
      }
    }
  }
  JOINT rButtock
  {
    OFFSET -8.77824 4.35084 1.2192
    CHANNELS 3 Zrotation Xrotation Yrotation
    JOINT rThigh
    {
      OFFSET 0 -1.70687 -2.19456
      CHANNELS 3 Zrotation Xrotation Yrotation
      JOINT rShin
      {
        OFFSET 0 -36.8199 0.73152
        CHANNELS 3 Zrotation Xrotation Yrotation
        JOINT rFoot
        {
          OFFSET 0.73152 -45.1104 -5.12064
          CHANNELS 3 Zrotation Xrotation Yrotation
          End Site
          {
            OFFSET -1.1221 -3.69964 12.103
          }
        }
      }
    }
  }
  JOINT lButtock
  {
    OFFSET 8.77824 4.35084 1.2192
    CHANNELS 3 Zrotation Xrotation Yrotation
    JOINT lThigh
    {
      OFFSET 0 -1.70687 -2.19456
      CHANNELS 3 Zrotation Xrotation Yrotation
      JOINT lShin
      {
        OFFSET 0 -36.8199 0.73152
        CHANNELS 3 Zrotation Xrotation Yrotation
        JOINT lFoot
        {
          OFFSET -0.73152 -45.1104 -5.12064
          CHANNELS 3 Zrotation Xrotation Yrotation
          End Site
          {
            OFFSET 1.1221 -3.69964 12.103
          }
        }
      }
    }
  }
}
MOTION
Frames:	5
Frame Time:	0.00833333
105.057 76.5697 -61.4623 0.0 0.0 0.0 -0.143207 -0.00270231 -0.00414758 -0.0395943 -0.00448409 -0.00686036 1.7417e-16 7.95139e-16 -1.3977e-17 4.53478e-16 9.54166e-15 -4.65902e-17 -0.0 0.0 0.0 -0.0 0.0 0.0 9.80873e-17 3.10601e-18 9.93923e-17 3.54901e-15 7.45443e-17 7.95139e-16 3.12589e-14 -4.57205e-15 -3.18055e-15 3.37984e-13 2.95444e-14 -2.54444e-14 8.00248e-13 5.48304e-14 -6.04305e-14 1.37002e-12 9.85972e-14 -1.18476e-13 8.04283e-13 5.56597e-14 -6.67917e-14 7.73091 5.47488 0.417314 8.00108e-13 5.4467e-14 -6.04305e-14 2.90554 0.965183 0.102902 8.05687e-13 5.4964e-14 -6.67917e-14 10.2786 0.731801 0.0259123 7.96331e-13 5.725e-14 -6.67917e-14 2.22167 -0.733487 -0.20892 1.31186e-18 2.71776e-18 -9.93923e-17 -3.71071e-16 -1.30452e-16 -1.19271e-15 2.60408e-14 1.41137e-14 0.0 3.4181e-13 1.60519e-14 -3.18055e-14 8.00275e-13 6.65307e-14 -6.99722e-14 1.40223e-12 1.145e-13 -1.15295e-13 7.93151e-13 6.63941e-14 -5.40694e-14 -7.73091 5.47488 -0.417314 8.01152e-13 6.64935e-14 -6.99722e-14 -2.90554 0.965183 -0.102902 7.9289e-13 6.60959e-14 -6.67917e-14 -10.2786 0.731801 -0.0259123 8.06668e-13 6.95746e-14 -6.99722e-14 -2.22167 -0.733487 0.20892 -2.03217e-16 0.0 -3.88251e-19 0.331221 -2.90287 -0.0343698 -0.0059984 -0.29294 -0.052769 -0.439374 3.19624 0.113625 2.03217e-16 0.0 3.88251e-19 -0.551095 -3.50685 0.0483551 0.00427659 0.801054 0.0368144 0.443241 2.70625 -0.104404
104.725 71.8752 -62.0359 1.4584 -7.1248 4.8454 -2.20084 3.03006 -1.83847 -0.096176 -4.30551 -0.562426 -1.26468 3.24378 0.637631 4.15098 0.122549 1.29022 -0.0 0.0 0.0 -0.0 0.0 0.0 -2.71581e-15 2.549e-15 3.95185e-14 -4.01175 -5.18186 -2.62021 -5.26342 -2.64404 7.92835 0.0062291 1.75205 0.24582 -1.30885e-10 -2.30894e-10 -2.86271e-10 -2.28547e-10 -4.00042e-10 -4.95362e-10 -1.3088e-10 -2.30893e-10 -2.8628e-10 7.73091 5.47488 0.417314 -1.30884e-10 -2.30894e-10 -2.86271e-10 2.90554 0.965183 0.102902 -1.30878e-10 -2.30894e-10 -2.86277e-10 10.2786 0.731801 0.0259123 -1.30888e-10 -2.30891e-10 -2.86276e-10 2.22167 -0.733487 -0.20892 -2.85188e-15 2.54691e-15 3.93357e-14 -4.22381 -6.75461 2.67382 9.19633 -6.06123 -11.7426 -0.432433 14.6792 -1.82686 -2.73786e-11 -1.29512e-10 -3.00424e-10 -6.08255e-11 -2.43035e-10 -5.16452e-10 -2.73834e-11 -1.29511e-10 -3.00409e-10 -7.73091 5.47488 -0.417314 -2.7378e-11 -1.29511e-10 -3.00422e-10 -2.90554 0.965183 -0.102902 -2.73857e-11 -1.29512e-10 -3.00422e-10 -10.2786 0.731801 -0.0259123 -2.73732e-11 -1.29509e-10 -3.00425e-10 -2.22167 -0.733487 0.20892 -2.03217e-16 0.0 -3.88251e-19 -4.28422 -21.6247 -1.61852 0.0923038 22.5524 0.253413 -1.31264 18.1069 4.624 2.03217e-16 0.0 3.88251e-19 -1.94518 -13.2479 -4.33634 -0.280395 18.0743 -0.313307 1.48508 -3.93733 5.79024
104.904 71.8721 -61.9405 1.0967 -7.2669 4.9357 -4.16752 6.24497 -3.79197 -0.245435 -8.85082 -1.15963 -2.68601 6.6748 1.31846 8.54831 0.246628 2.65505 -0.0 0.0 0.0 -0.0 0.0 0.0 -6.38909e-15 3.51236e-15 8.13713e-14 -8.7667 -10.6242 -5.4662 -10.034 -5.26555 16.3548 -0.00358289 3.61164 0.50751 -2.9128e-10 -4.88823e-10 -6.11227e-10 -5.08387e-10 -8.46898e-10 -1.05754e-09 -2.91275e-10 -4.88823e-10 -6.11238e-10 7.73091 5.47488 0.417314 -2.9128e-10 -4.88823e-10 -6.11227e-10 2.90554 0.965183 0.102902 -2.91273e-10 -4.88823e-10 -6.11233e-10 10.2786 0.731801 0.0259123 -2.91283e-10 -4.8882e-10 -6.1123e-10 2.22167 -0.733487 -0.20892 -6.56959e-15 3.50846e-15 8.12066e-14 -8.00301 -13.8549 5.61311 16.2405 -11.6037 -24.5441 0.272323 30.1471 -4.20522 -5.39754e-11 -2.68642e-10 -6.38756e-10 -1.2199e-10 -5.05648e-10 -1.09825e-09 -5.39777e-11 -2.68639e-10 -6.38741e-10 -7.73091 5.47488 -0.417314 -5.39752e-11 -2.68639e-10 -6.38752e-10 -2.90554 0.965183 -0.102902 -5.39823e-11 -2.68641e-10 -6.38755e-10 -10.2786 0.731801 -0.0259123 -5.39712e-11 -2.68639e-10 -6.38757e-10 -2.22167 -0.733487 0.20892 -2.03217e-16 0.0 -3.88251e-19 -10.6068 -41.3495 -4.04869 -0.172382 46.7021 0.783302 -5.26571 33.497 10.7647 2.03217e-16 0.0 3.88251e-19 -5.15214 -23.3281 -9.52601 -0.302164 36.3319 -0.80865 4.08419 -10.7493 12.2164
105.138 71.8679 -61.9035 0.9054 -7.4669 5.1602 -5.72828 9.05803 -5.56906 -0.465061 -12.9026 -1.71203 -4.01329 9.72647 1.93769 12.4364 0.366902 3.87072 -0.0 0.0 0.0 -0.0 0.0 0.0 -8.34362e-15 7.64078e-15 1.18357e-13 -13.4971 -15.4131 -8.12246 -13.6502 -7.32589 23.9673 -0.0265751 5.25577 0.740227 -3.94254e-10 -6.92791e-10 -8.58692e-10 -6.8838e-10 -1.20032e-09 -1.48585e-09 -3.94249e-10 -6.92792e-10 -8.58706e-10 7.73091 5.47488 0.417314 -3.94253e-10 -6.92792e-10 -8.58692e-10 2.90554 0.965183 0.102902 -3.94246e-10 -6.92791e-10 -8.58698e-10 10.2786 0.731801 0.0259123 -3.94257e-10 -6.92788e-10 -8.58694e-10 2.22167 -0.733487 -0.20892 -8.55826e-15 7.6353e-15 1.18206e-13 -10.6832 -20.0815 8.48506 20.447 -15.1159 -36.4805 2.42283 43.8223 -7.35788 -8.37363e-11 -3.8867e-10 -9.01133e-10 -1.85281e-10 -7.29335e-10 -1.54913e-09 -8.37365e-11 -3.88666e-10 -9.01119e-10 -7.73091 5.47488 -0.417314 -8.37364e-11 -3.88665e-10 -9.01127e-10 -2.90554 0.965183 -0.102902 -8.37429e-11 -3.88667e-10 -9.01133e-10 -10.2786 0.731801 -0.0259123 -8.3733e-11 -3.88666e-10 -9.01135e-10 -2.22167 -0.733487 0.20892 -2.03217e-16 0.0 -3.88251e-19 -19.1051 -58.8051 -8.60577 -1.44287 68.2296 2.17803 -12.7796 46.4931 19.0071 2.03217e-16 0.0 3.88251e-19 -9.85332 -31.9315 -15.0833 0.123338 52.6109 -1.59289 7.73876 -16.458 18.3134
105.456 71.8571 -61.7983 1.1878 -7.7447 5.2755 -6.69578 10.9025 -6.8445 -0.678664 -15.7253 -2.11598 -4.9494 11.8344 2.3792 15.0619 0.478306 4.71339 -0.0 0.0 0.0 -0.0 0.0 0.0 -6.00127e-15 1.96818e-14 1.43175e-13 -17.116 -18.6953 -10.0541 -15.8577 -8.55558 29.3726 -0.049894 6.36162 0.897796 -3.53674e-10 -7.6186e-10 -9.12431e-10 -6.18757e-10 -1.32017e-09 -1.57951e-09 -3.53669e-10 -7.6186e-10 -9.12447e-10 7.73091 5.47488 0.417314 -3.53673e-10 -7.61861e-10 -9.12431e-10 2.90554 0.965183 0.102902 -3.53666e-10 -7.6186e-10 -9.12437e-10 10.2786 0.731801 0.0259123 -3.53677e-10 -7.61857e-10 -9.12431e-10 2.22167 -0.733487 -0.20892 -6.22435e-15 1.96754e-14 1.43026e-13 -12.0428 -24.2937 10.75 22.4645 -16.4709 -45.0639 5.43562 53.2036 -10.8296 -1.21407e-10 -4.60942e-10 -9.73622e-10 -2.53888e-10 -8.55709e-10 -1.67273e-09 -1.21407e-10 -4.60936e-10 -9.73609e-10 -7.73091 5.47488 -0.417314 -1.21407e-10 -4.60936e-10 -9.73616e-10 -2.90554 0.965183 -0.102902 -1.21414e-10 -4.60938e-10 -9.73623e-10 -10.2786 0.731801 -0.0259123 -1.21405e-10 -4.60938e-10 -9.73625e-10 -2.22167 -0.733487 0.20892 -2.03217e-16 0.0 -3.88251e-19 -30.4767 -70.6901 -16.9588 -7.66161 83.1775 8.41754 -21.6252 54.8189 27.6874 2.03217e-16 0.0 3.88251e-19 -14.4504 -37.5899 -19.7363 1.03493 63.9508 -2.70656 11.0626 -20.1605 22.8411
